<svg width="24" height="13" viewBox="0 0 24 13" fill="none" xmlns="http://www.w3.org/2000/svg">
<path d="M12 12.16C5.37 12.16 0 9.44 0 6.08C0 2.72 5.37 0 12 0C18.63 0 24 2.72 24 6.08C24 9.44 18.63 12.16 12 12.16ZM6.81 4.21C7.35 4.21 7.72 4.31 7.9 4.52C8.08 4.72 8.12 5.08 8.03 5.55C7.93 6.08 7.74 6.42 7.45 6.64C7.17 6.86 6.74 6.97 6.16 6.97H5.29L5.82 4.21H6.81ZM3.31 9.76H4.75L5.09 8.01H6.32C6.86 8.01 7.3 7.95 7.65 7.84C8 7.72 8.32 7.53 8.61 7.26C8.85 7.04 9.04 6.8 9.19 6.53C9.34 6.27 9.45 5.97 9.5 5.65C9.66 4.87 9.55 4.26 9.17 3.83C8.78 3.39 8.18 3.18 7.35 3.18H4.59L3.31 9.76ZM10.56 1.43L9.28 8.01H10.7L11.44 4.24H12.58C12.94 4.24 13.18 4.3 13.29 4.42C13.4 4.54 13.42 4.76 13.36 5.08L12.79 8.01H14.24L14.83 4.94C14.96 4.32 14.86 3.87 14.56 3.58C14.26 3.31 13.71 3.18 12.91 3.18H11.64L12 1.43H10.56ZM18 4.21C18.55 4.21 18.91 4.31 19.09 4.52C19.27 4.72 19.31 5.08 19.22 5.55C19.12 6.08 18.93 6.42 18.65 6.64C18.36 6.86 17.93 6.97 17.35 6.97H16.5L17 4.21H18ZM14.5 9.76H15.94L16.28 8.01H17.5C18.05 8.01 18.5 7.95 18.85 7.84C19.2 7.72 19.5 7.53 19.8 7.26C20.04 7.04 20.24 6.8 20.38 6.53C20.53 6.27 20.64 5.97 20.7 5.65C20.85 4.87 20.74 4.26 20.36 3.83C20 3.39 19.37 3.18 18.54 3.18H15.79L14.5 9.76Z" fill="white"/>
</svg>
